999
dxflib 2.2.0.0
  0
SECTION
  2
HEADER
  9
$ACADVER
  1
AC1015
  9
$HANDSEED
  5
FFFF
  9
$DIMASZ
 40
0.1
  9
$PLIMMIN
 10
0.0
 20
0.0
  9
$DIMEXE
 40
0.05
  9
$DIMGAP
 40
0.025
  9
$PLIMMAX
 10
8.2677165354330722
 20
11.6929133858267722
  9
$INSUNITS
 70
1
  9
$DIMSTYLE
  2
Standard
  9
$CLAYER
  8
picture
  9
$DIMEXO
 40
0.025
  9
$DIMTXT
 40
0.1
  9
$CLAYER
  8
1
  0
ENDSEC
  0
SECTION
  2
TABLES
  0
TABLE
  2
VPORT
  5
8
100
AcDbSymbolTable
 70
1
  0
VPORT
  5
30
100
AcDbSymbolTableRecord
100
AcDbViewportTableRecord
  2
*Active
 70
0
 10
0.0
 20
0.0
 11
1.0
 21
1.0
 12
286.3055555555554861
 22
148.5
 13
0.0
 23
0.0
 14
10.0
 24
10.0
 15
10.0
 25
10.0
 16
0.0
 26
0.0
 36
1.0
 17
0.0
 27
0.0
 37
0.0
 40
297.0
 41
1.92798353909465
 42
50.0
 43
0.0
 44
0.0
 50
0.0
 51
0.0
 71
0
 72
100
 73
1
 74
3
 75
1
 76
1
 77
0
 78
0
281
0
 65
1
110
0.0
120
0.0
130
0.0
111
1.0
121
0.0
131
0.0
112
0.0
122
1.0
132
0.0
 79
0
146
0.0
  0
ENDTAB
  0
TABLE
  2
LTYPE
  5
5
100
AcDbSymbolTable
 70
21
  0
LTYPE
  5
14
100
AcDbSymbolTableRecord
100
AcDbLinetypeTableRecord
  2
ByBlock
 70
0
  3

 72
65
 73
0
 40
0.0
  0
LTYPE
  5
15
100
AcDbSymbolTableRecord
100
AcDbLinetypeTableRecord
  2
ByLayer
 70
0
  3

 72
65
 73
0
 40
0.0
  0
LTYPE
  5
16
100
AcDbSymbolTableRecord
100
AcDbLinetypeTableRecord
  2
CONTINUOUS
 70
0
  3
Solid line
 72
65
 73
0
 40
0.0
  0
LTYPE
  5
31
100
AcDbSymbolTableRecord
100
AcDbLinetypeTableRecord
  2
DOT
 70
0
  3
Dot . . . . . . . . . . . . . . . . . . . . . .
 72
65
 73
2
 40
6.3499999999999996
 49
0.0
 74
0
 49
-6.3499999999999996
 74
0
  0
LTYPE
  5
32
100
AcDbSymbolTableRecord
100
AcDbLinetypeTableRecord
  2
DOT2
 70
0
  3
Dot (.5x) .....................................
 72
65
 73
2
 40
3.1749999999999998
 49
0.0
 74
0
 49
-3.1749999999999998
 74
0
  0
LTYPE
  5
33
100
AcDbSymbolTableRecord
100
AcDbLinetypeTableRecord
  2
DOTX2
 70
0
  3
Dot (2x) .  .  .  .  .  .  .  .  .  .  .  .  .
 72
65
 73
2
 40
12.6999999999999993
 49
0.0
 74
0
 49
-12.6999999999999993
 74
0
  0
LTYPE
  5
34
100
AcDbSymbolTableRecord
100
AcDbLinetypeTableRecord
  2
DASHED
 70
0
  3
Dashed __ __ __ __ __ __ __ __ __ __ __ __ __ _
 72
65
 73
2
 40
19.0500000000000007
 49
12.6999999999999993
 74
0
 49
-6.3499999999999996
 74
0
  0
LTYPE
  5
35
100
AcDbSymbolTableRecord
100
AcDbLinetypeTableRecord
  2
DASHED2
 70
0
  3
Dashed (.5x) _ _ _ _ _ _ _ _ _ _ _ _ _ _ _ _ _
 72
65
 73
2
 40
9.5250000000000004
 49
6.3499999999999996
 74
0
 49
-3.1749999999999998
 74
0
  0
LTYPE
  5
36
100
AcDbSymbolTableRecord
100
AcDbLinetypeTableRecord
  2
DASHEDX2
 70
0
  3
Dashed (2x) ____  ____  ____  ____  ____  ___
 72
65
 73
2
 40
38.1000000000000014
 49
25.3999999999999986
 74
0
 49
-12.6999999999999993
 74
0
  0
LTYPE
  5
37
100
AcDbSymbolTableRecord
100
AcDbLinetypeTableRecord
  2
DASHDOT
 70
0
  3
Dash dot __ . __ . __ . __ . __ . __ . __ . __
 72
65
 73
4
 40
25.3999999999999986
 49
12.6999999999999993
 74
0
 49
-6.3499999999999996
 74
0
 49
0.0
 74
0
 49
-6.3499999999999996
 74
0
  0
LTYPE
  5
38
100
AcDbSymbolTableRecord
100
AcDbLinetypeTableRecord
  2
DASHDOT2
 70
0
  3
Dash dot (.5x) _._._._._._._._._._._._._._._.
 72
65
 73
4
 40
12.6999999999999993
 49
6.3499999999999996
 74
0
 49
-3.1749999999999998
 74
0
 49
0.0
 74
0
 49
-3.1749999999999998
 74
0
  0
LTYPE
  5
39
100
AcDbSymbolTableRecord
100
AcDbLinetypeTableRecord
  2
DASHDOTX2
 70
0
  3
Dash dot (2x) ____  .  ____  .  ____  .  ___
 72
65
 73
4
 40
50.7999999999999972
 49
25.3999999999999986
 74
0
 49
-12.6999999999999993
 74
0
 49
0.0
 74
0
 49
-12.6999999999999993
 74
0
  0
LTYPE
  5
3A
100
AcDbSymbolTableRecord
100
AcDbLinetypeTableRecord
  2
DIVIDE
 70
0
  3
Divide ____ . . ____ . . ____ . . ____ . . ____
 72
65
 73
6
 40
31.75
 49
12.6999999999999993
 74
0
 49
-6.3499999999999996
 74
0
 49
0.0
 74
0
 49
-6.3499999999999996
 74
0
 49
0.0
 74
0
 49
-6.3499999999999996
 74
0
  0
LTYPE
  5
3B
100
AcDbSymbolTableRecord
100
AcDbLinetypeTableRecord
  2
DIVIDE2
 70
0
  3
Divide (.5x) __..__..__..__..__..__..__..__.._
 72
65
 73
6
 40
15.875
 49
6.3499999999999996
 74
0
 49
-3.1749999999999998
 74
0
 49
0.0
 74
0
 49
-3.1749999999999998
 74
0
 49
0.0
 74
0
 49
-3.1749999999999998
 74
0
  0
LTYPE
  5
3C
100
AcDbSymbolTableRecord
100
AcDbLinetypeTableRecord
  2
DIVIDEX2
 70
0
  3
Divide (2x) ________  .  .  ________  .  .  _
 72
65
 73
6
 40
63.5
 49
25.3999999999999986
 74
0
 49
-12.6999999999999993
 74
0
 49
0.0
 74
0
 49
-12.6999999999999993
 74
0
 49
0.0
 74
0
 49
-12.6999999999999993
 74
0
  0
LTYPE
  5
3D
100
AcDbSymbolTableRecord
100
AcDbLinetypeTableRecord
  2
CENTER
 70
0
  3
Center ____ _ ____ _ ____ _ ____ _ ____ _ ____
 72
65
 73
4
 40
50.7999999999999972
 49
31.75
 74
0
 49
-6.3499999999999996
 74
0
 49
6.3499999999999996
 74
0
 49
-6.3499999999999996
 74
0
  0
LTYPE
  5
3E
100
AcDbSymbolTableRecord
100
AcDbLinetypeTableRecord
  2
CENTER2
 70
0
  3
Center (.5x) ___ _ ___ _ ___ _ ___ _ ___ _ ___
 72
65
 73
4
 40
28.5749999999999993
 49
19.0500000000000007
 74
0
 49
-3.1749999999999998
 74
0
 49
3.1749999999999998
 74
0
 49
-3.1749999999999998
 74
0
  0
LTYPE
  5
3F
100
AcDbSymbolTableRecord
100
AcDbLinetypeTableRecord
  2
CENTERX2
 70
0
  3
Center (2x) ________  __  ________  __  _____
 72
65
 73
4
 40
101.5999999999999943
 49
63.5
 74
0
 49
-12.6999999999999993
 74
0
 49
12.6999999999999993
 74
0
 49
-12.6999999999999993
 74
0
  0
LTYPE
  5
40
100
AcDbSymbolTableRecord
100
AcDbLinetypeTableRecord
  2
BORDER
 70
0
  3
Border __ __ . __ __ . __ __ . __ __ . __ __ .
 72
65
 73
6
 40
44.4500000000000028
 49
12.6999999999999993
 74
0
 49
-6.3499999999999996
 74
0
 49
12.6999999999999993
 74
0
 49
-6.3499999999999996
 74
0
 49
0.0
 74
0
 49
-6.3499999999999996
 74
0
  0
LTYPE
  5
41
100
AcDbSymbolTableRecord
100
AcDbLinetypeTableRecord
  2
BORDER2
 70
0
  3
Border (.5x) __.__.__.__.__.__.__.__.__.__.__.
 72
65
 73
6
 40
22.2250000000000014
 49
6.3499999999999996
 74
0
 49
-3.1749999999999998
 74
0
 49
6.3499999999999996
 74
0
 49
-3.1749999999999998
 74
0
 49
0.0
 74
0
 49
-3.1749999999999998
 74
0
  0
LTYPE
  5
42
100
AcDbSymbolTableRecord
100
AcDbLinetypeTableRecord
  2
BORDERX2
 70
0
  3
Border (2x) ____  ____  .  ____  ____  .  ___
 72
65
 73
6
 40
88.9000000000000057
 49
25.3999999999999986
 74
0
 49
-12.6999999999999993
 74
0
 49
25.3999999999999986
 74
0
 49
-12.6999999999999993
 74
0
 49
0.0
 74
0
 49
-12.6999999999999993
 74
0
  0
ENDTAB
  0
TABLE
  2
LAYER
  5
2
100
AcDbSymbolTable
 70
3
  0
LAYER
  5
10
100
AcDbSymbolTableRecord
100
AcDbLayerTableRecord
  2
0
 70
1
 62
-7
420
0
  6
CONTINUOUS
370
25
390
F
  0
LAYER
  5
43
100
AcDbSymbolTableRecord
100
AcDbLayerTableRecord
  2
picture
 70
1
 62
-7
420
0
  6
CONTINUOUS
370
0
390
F
  0
LAYER
  5
44
100
AcDbSymbolTableRecord
100
AcDbLayerTableRecord
  2
1
 70
0
 62
7
420
0
  6
CONTINUOUS
370
0
390
F
  0
ENDTAB
  0
TABLE
  2
STYLE
  5
3
100
AcDbSymbolTable
 70
1
  0
STYLE
  5
11
100
AcDbSymbolTableRecord
100
AcDbTextStyleTableRecord
  2
Standard
 70
0
 40
0.0
 41
0.75
 50
0.0
 71
0
 42
2.5
  3
txt
  4

  0
ENDTAB
  0
TABLE
  2
VIEW
  5
6
100
AcDbSymbolTable
 70
0
  0
ENDTAB
  0
TABLE
  2
UCS
  5
7
100
AcDbSymbolTable
 70
0
  0
ENDTAB
  0
TABLE
  2
APPID
  5
9
100
AcDbSymbolTable
 70
1
  0
APPID
  5
12
100
AcDbSymbolTableRecord
100
AcDbRegAppTableRecord
  2
ACAD
 70
0
  0
ENDTAB
  0
TABLE
  2
DIMSTYLE
  5
A
100
AcDbSymbolTable
 70
1
100
AcDbDimStyleTable
 71
0
  0
DIMSTYLE
105
27
100
AcDbSymbolTableRecord
100
AcDbDimStyleTableRecord
  2
Standard
 41
0.1
 42
0.025
 43
3.75
 44
0.05
 70
0
 73
0
 74
0
 77
1
 78
8
140
0.1
141
2.5
143
0.03937007874016
147
0.025
171
3
172
1
271
2
272
2
274
3
278
44
283
0
284
8
340
11
  0
ENDTAB
  0
TABLE
  2
BLOCK_RECORD
  5
1
100
AcDbSymbolTable
 70
1
  0
BLOCK_RECORD
  5
1F
100
AcDbSymbolTableRecord
100
AcDbBlockTableRecord
  2
*Model_Space
340
22
  0
BLOCK_RECORD
  5
1B
100
AcDbSymbolTableRecord
100
AcDbBlockTableRecord
  2
*Paper_Space
340
1E
  0
BLOCK_RECORD
  5
23
100
AcDbSymbolTableRecord
100
AcDbBlockTableRecord
  2
*Paper_Space0
340
26
  0
ENDTAB
  0
ENDSEC
  0
SECTION
  2
BLOCKS
  0
BLOCK
  5
20
100
AcDbEntity
  8
0
100
AcDbBlockBegin
  2
*Model_Space
 70
0
 10
0.0
 20
0.0
 30
0.0
  3
*Model_Space
  1

  0
ENDBLK
  5
21
100
AcDbEntity
  8
0
100
AcDbBlockEnd
  0
BLOCK
  5
1C
100
AcDbEntity
 67
1
  8
0
100
AcDbBlockBegin
  2
*Paper_Space
 70
0
 10
0.0
 20
0.0
 30
0.0
  3
*Paper_Space
  1

  0
ENDBLK
  5
1D
100
AcDbEntity
 67
1
  8
0
100
AcDbBlockEnd
  0
BLOCK
  5
24
100
AcDbEntity
  8
0
100
AcDbBlockBegin
  2
*Paper_Space0
 70
0
 10
0.0
 20
0.0
 30
0.0
  3
*Paper_Space0
  1

  0
ENDBLK
  5
25
100
AcDbEntity
  8
0
100
AcDbBlockEnd
  0
ENDSEC
  0
SECTION
  2
ENTITIES
  0
IMAGE
  5
45
  8
picture
 62
256
370
-1
  6
ByLayer
100
AcDbEntity
100
AcDbRasterImage
 90
0
 10
0.0
 20
0.0
 30
0.0
 11
0.0059632
 21
0.0
 31
0.0
 12
0.0
 22
0.0059632
 32
0.0
 13
1936.0
 23
2592.0
340
46
 70
15
280
0
281
50
282
50
283
0
  0
LINE
  5
47
100
AcDbEntity
100
AcDbLine
  8
0
 62
256
370
-1
  6
ByLayer
 10
2.2808282236967026
 20
0.0873369189720137
 30
0.0
 11
2.2312752292779976
 21
0.0844493771810839
 31
0.0
  0
LINE
  5
48
100
AcDbEntity
100
AcDbLine
  8
0
 62
256
370
-1
  6
ByLayer
 10
2.2312752292779976
 20
0.0844493771810839
 30
0.0
 11
2.1796193717264325
 21
0.0827496828133043
 31
0.0
  0
LINE
  5
49
100
AcDbEntity
100
AcDbLine
  8
0
 62
256
370
-1
  6
ByLayer
 10
2.1796193717264325
 20
0.0827496828133043
 30
0.0
 11
2.1346927126068111
 21
0.0907573907191761
 31
0.0
  0
LINE
  5
4A
100
AcDbEntity
100
AcDbLine
  8
0
 62
256
370
-1
  6
ByLayer
 10
2.1346927126068111
 20
0.0907573907191761
 30
0.0
 11
2.0837393246329006
 21
0.1057471564196479
 31
0.0
  0
LINE
  5
4B
100
AcDbEntity
100
AcDbLine
  8
0
 62
256
370
-1
  6
ByLayer
 10
2.0837393246329006
 20
0.1057471564196479
 30
0.0
 11
2.0525239217398061
 21
0.1294889954534018
 31
0.0
  0
LINE
  5
4C
100
AcDbEntity
100
AcDbLine
  8
0
 62
256
370
-1
  6
ByLayer
 10
2.0525239217398061
 20
0.1294889954534018
 30
0.0
 11
1.9886320682879726
 21
0.1713252337106237
 31
0.0
  0
LINE
  5
4D
100
AcDbEntity
100
AcDbLine
  8
0
 62
256
370
-1
  6
ByLayer
 10
1.9886320682879726
 20
0.1713252337106237
 30
0.0
 11
1.9129396164902284
 21
0.2234449141377386
 31
0.0
  0
LINE
  5
4E
100
AcDbEntity
100
AcDbLine
  8
0
 62
256
370
-1
  6
ByLayer
 10
1.9129396164902284
 20
0.2234449141377386
 30
0.0
 11
1.8342689608508218
 21
0.2920011952703749
 31
0.0
  0
LINE
  5
4F
100
AcDbEntity
100
AcDbLine
  8
0
 62
256
370
-1
  6
ByLayer
 10
1.8342689608508218
 20
0.2920011952703749
 30
0.0
 11
1.7580707903277384
 21
0.3514822225360952
 31
0.0
  0
LINE
  5
50
100
AcDbEntity
100
AcDbLine
  8
0
 62
256
370
-1
  6
ByLayer
 10
1.7580707903277384
 20
0.3514822225360952
 30
0.0
 11
1.681872619804655
 21
0.4109632498018136
 31
0.0
  0
LINE
  5
51
100
AcDbEntity
100
AcDbLine
  8
0
 62
256
370
-1
  6
ByLayer
 10
1.681872619804655
 20
0.4109632498018136
 30
0.0
 11
1.6177982281611172
 21
0.4823713050947784
 31
0.0
  0
LINE
  5
52
100
AcDbEntity
100
AcDbLine
  8
0
 62
256
370
-1
  6
ByLayer
 10
1.6177982281611172
 20
0.4823713050947784
 30
0.0
 11
1.5572780802555473
 21
0.5558725564600611
 31
0.0
  0
LINE
  5
53
100
AcDbEntity
100
AcDbLine
  8
0
 62
256
370
-1
  6
ByLayer
 10
1.5572780802555473
 20
0.5558725564600611
 30
0.0
 11
1.4274857111111232
 21
0.7226130442714496
 31
0.0
  0
LINE
  5
54
100
AcDbEntity
100
AcDbLine
  8
0
 62
256
370
-1
  6
ByLayer
 10
1.4274857111111232
 20
0.7226130442714496
 30
0.0
 11
1.1589521486366898
 21
1.0517811980682445
 31
0.0
  0
LINE
  5
55
100
AcDbEntity
100
AcDbLine
  8
0
 62
256
370
-1
  6
ByLayer
 10
1.1589521486366898
 20
1.0517811980682445
 30
0.0
 11
1.0771349636245144
 21
1.2199685208846809
 31
0.0
  0
LINE
  5
56
100
AcDbEntity
100
AcDbLine
  8
0
 62
256
370
-1
  6
ByLayer
 10
1.0771349636245144
 20
1.2199685208846809
 30
0.0
 11
0.9829553530307202
 21
1.4335321130357084
 31
0.0
  0
LINE
  5
57
100
AcDbEntity
100
AcDbLine
  8
0
 62
256
370
-1
  6
ByLayer
 10
0.9829553530307202
 20
1.4335321130357084
 30
0.0
 11
0.9234750678970203
 21
1.5995559186088553
 31
0.0
  0
LINE
  5
58
100
AcDbEntity
100
AcDbLine
  8
0
 62
256
370
-1
  6
ByLayer
 10
0.9234750678970203
 20
1.5995559186088553
 30
0.0
 11
0.8439620424700625
 21
1.8418624285366541
 31
0.0
  0
LINE
  5
59
100
AcDbEntity
100
AcDbLine
  8
0
 62
256
370
-1
  6
ByLayer
 10
0.8439620424700625
 20
1.8418624285366541
 30
0.0
 11
0.8045990314611822
 21
2.0111172973141347
 31
0.0
  0
LINE
  5
5A
100
AcDbEntity
100
AcDbLine
  8
0
 62
256
370
-1
  6
ByLayer
 10
0.8045990314611822
 20
2.0111172973141347
 30
0.0
 11
0.7629744988488798
 21
2.2671208508078617
 31
0.0
  0
LINE
  5
5B
100
AcDbEntity
100
AcDbLine
  8
0
 62
256
370
-1
  6
ByLayer
 10
0.7629744988488798
 20
2.2671208508078617
 30
0.0
 11
0.7033962093550388
 21
2.5422302409757336
 31
0.0
  0
LINE
  5
5C
100
AcDbEntity
100
AcDbLine
  8
0
 62
256
370
-1
  6
ByLayer
 10
0.7033962093550388
 20
2.5422302409757336
 30
0.0
 11
0.6515024472334328
 21
2.8400558200660821
 31
0.0
  0
LINE
  5
5D
100
AcDbEntity
100
AcDbLine
  8
0
 62
256
370
-1
  6
ByLayer
 10
0.6515024472334328
 20
2.8400558200660821
 30
0.0
 11
0.5850142834555156
 21
3.456297382618807
 31
0.0
  0
LINE
  5
5E
100
AcDbEntity
100
AcDbLine
  8
0
 62
256
370
-1
  6
ByLayer
 10
0.5850142834555156
 20
3.456297382618807
 30
0.0
 11
0.5182214007184758
 21
4.3444398574927909
 31
0.0
  0
LINE
  5
5F
100
AcDbEntity
100
AcDbLine
  8
0
 62
256
370
-1
  6
ByLayer
 10
0.5182214007184758
 20
4.3444398574927909
 30
0.0
 11
0.4865485181195504
 21
4.9316398228251597
 31
0.0
  0
LINE
  5
60
100
AcDbEntity
100
AcDbLine
  8
0
 62
256
370
-1
  6
ByLayer
 10
2.2808282236967026
 20
0.0873369189720137
 30
0.0
 11
2.3326287314943022
 21
0.0697254427244118
 31
0.0
  0
LINE
  5
61
100
AcDbEntity
100
AcDbLine
  8
0
 62
256
370
-1
  6
ByLayer
 10
2.3326287314943022
 20
0.0697254427244118
 30
0.0
 11
2.3374327056625459
 21
-0.000202203384509
 31
0.0
  0
POINT
  5
62
100
AcDbEntity
100
AcDbPoint
  8
0
 62
256
370
-1
  6
ByLayer
 10
-0.0000000000000009
 20
0.0
 30
0.0
  0
LINE
  5
63
100
AcDbEntity
100
AcDbLine
  8
0
 62
256
370
-1
  6
ByLayer
 10
-0.0000000000000009
 20
0.0
 30
0.0
 11
-0.0000000000000009
 21
4.937382569858455
 31
0.0
  0
LINE
  5
64
100
AcDbEntity
100
AcDbLine
  8
0
 62
256
370
-1
  6
ByLayer
 10
-0.0000000000000009
 20
4.937382569858455
 30
0.0
 11
0.4865485181195504
 21
4.9316398228251597
 31
0.0
  0
LINE
  5
65
100
AcDbEntity
100
AcDbLine
  8
0
 62
256
370
-1
  6
ByLayer
 10
-0.0000000000000009
 20
0.0
 30
0.0
 11
2.3374327056625459
 21
-0.000202203384509
 31
0.0
  0
LINE
  5
66
100
AcDbEntity
100
AcDbLine
  8
1
 62
256
370
-1
  6
ByLayer
 10
0.5855539519103312
 20
4.9431253168917504
 30
0.0
 11
0.6024050025114457
 21
4.2027650106776386
 31
0.0
  0
LINE
  5
67
100
AcDbEntity
100
AcDbLine
  8
1
 62
256
370
-1
  6
ByLayer
 10
0.6024050025114457
 20
4.2027650106776386
 30
0.0
 11
0.6415498712529046
 21
3.3762316116552142
 31
0.0
  0
LINE
  5
68
100
AcDbEntity
100
AcDbLine
  8
1
 62
256
370
-1
  6
ByLayer
 10
0.6415498712529046
 20
3.3762316116552142
 30
0.0
 11
0.6961553178704575
 21
2.7182351282959241
 31
0.0
  0
LINE
  5
69
100
AcDbEntity
100
AcDbLine
  8
1
 62
256
370
-1
  6
ByLayer
 10
0.6961553178704575
 20
2.7182351282959241
 30
0.0
 11
0.7170309311575128
 21
2.5174532702616985
 31
0.0
  0
LINE
  5
6A
100
AcDbEntity
100
AcDbLine
  8
1
 62
256
370
-1
  6
ByLayer
 10
0.7170309311575128
 20
2.5174532702616985
 30
0.0
 11
0.7553572474746337
 21
2.3183616600737871
 31
0.0
  0
LINE
  5
6B
100
AcDbEntity
100
AcDbLine
  8
1
 62
256
370
-1
  6
ByLayer
 10
0.7553572474746337
 20
2.3183616600737871
 30
0.0
 11
0.7942105087414872
 21
2.0764752078227029
 31
0.0
  0
LINE
  5
6C
100
AcDbEntity
100
AcDbLine
  8
1
 62
256
370
-1
  6
ByLayer
 10
0.7942105087414872
 20
2.0764752078227029
 30
0.0
 11
0.8546367620510796
 21
1.8458187365354599
 31
0.0
  0
LINE
  5
6D
100
AcDbEntity
100
AcDbLine
  8
1
 62
256
370
-1
  6
ByLayer
 10
0.8546367620510796
 20
1.8458187365354599
 30
0.0
 11
0.9195937214968396
 21
1.5801818406372556
 31
0.0
  0
LINE
  5
6E
100
AcDbEntity
100
AcDbLine
  8
1
 62
256
370
-1
  6
ByLayer
 10
0.9195937214968396
 20
1.5801818406372556
 30
0.0
 11
1.0072210497841474
 21
1.3753920118764191
 31
0.0
  0
LINE
  5
6F
100
AcDbEntity
100
AcDbLine
  8
1
 62
256
370
-1
  6
ByLayer
 10
1.0072210497841474
 20
1.3753920118764191
 30
0.0
 11
1.0804838399803627
 21
1.197013072584955
 31
0.0
  0
LINE
  5
70
100
AcDbEntity
100
AcDbLine
  8
1
 62
256
370
-1
  6
ByLayer
 10
1.0804838399803627
 20
1.197013072584955
 30
0.0
 11
1.148741812735413
 21
1.0467132952432452
 31
0.0
  0
LINE
  5
71
100
AcDbEntity
100
AcDbLine
  8
1
 62
256
370
-1
  6
ByLayer
 10
1.148741812735413
 20
1.0467132952432452
 30
0.0
 11
1.2288179641291099
 21
0.900224174167331
 31
0.0
  0
LINE
  5
72
100
AcDbEntity
100
AcDbLine
  8
1
 62
256
370
-1
  6
ByLayer
 10
1.2288179641291099
 20
0.900224174167331
 30
0.0
 11
1.3256292101389255
 21
0.7618304769279887
 31
0.0
  0
LINE
  5
73
100
AcDbEntity
100
AcDbLine
  8
1
 62
256
370
-1
  6
ByLayer
 10
1.3256292101389255
 20
0.7618304769279887
 30
0.0
 11
1.4019648409048016
 21
0.6618238848983394
 31
0.0
  0
LINE
  5
74
100
AcDbEntity
100
AcDbLine
  8
1
 62
256
370
-1
  6
ByLayer
 10
1.4019648409048016
 20
0.6618238848983394
 30
0.0
 11
1.4702050478341018
 21
0.578552387484803
 31
0.0
  0
LINE
  5
75
100
AcDbEntity
100
AcDbLine
  8
1
 62
256
370
-1
  6
ByLayer
 10
1.4702050478341018
 20
0.578552387484803
 30
0.0
 11
1.5628016619110887
 21
0.4797399566305333
 31
0.0
  0
LINE
  5
76
100
AcDbEntity
100
AcDbLine
  8
1
 62
256
370
-1
  6
ByLayer
 10
1.5628016619110887
 20
0.4797399566305333
 30
0.0
 11
1.6853037475198962
 21
0.3788730434545828
 31
0.0
  0
LINE
  5
77
100
AcDbEntity
100
AcDbLine
  8
1
 62
256
370
-1
  6
ByLayer
 10
1.6853037475198962
 20
0.3788730434545828
 30
0.0
 11
1.8145490586882254
 21
0.2752315980865778
 31
0.0
  0
LINE
  5
78
100
AcDbEntity
100
AcDbLine
  8
1
 62
256
370
-1
  6
ByLayer
 10
1.8145490586882254
 20
0.2752315980865778
 30
0.0
 11
1.9445845553648962
 21
0.1830922571538829
 31
0.0
  0
LINE
  5
79
100
AcDbEntity
100
AcDbLine
  8
1
 62
256
370
-1
  6
ByLayer
 10
1.9445845553648962
 20
0.1830922571538829
 30
0.0
 11
2.036935230876507
 21
0.1143433349330854
 31
0.0
  0
LINE
  5
7A
100
AcDbEntity
100
AcDbLine
  8
1
 62
256
370
-1
  6
ByLayer
 10
2.036935230876507
 20
0.1143433349330854
 30
0.0
 11
2.1129370216132983
 21
0.0767641810574831
 31
0.0
  0
LINE
  5
7B
100
AcDbEntity
100
AcDbLine
  8
1
 62
256
370
-1
  6
ByLayer
 10
2.1129370216132983
 20
0.0767641810574831
 30
0.0
 11
2.1952780622425685
 21
0.06417358273621
 31
0.0
  0
LINE
  5
7C
100
AcDbEntity
100
AcDbLine
  8
1
 62
256
370
-1
  6
ByLayer
 10
2.1952780622425685
 20
0.06417358273621
 30
0.0
 11
2.337746120138819
 21
0.0520748615457236
 31
0.0
  0
LINE
  5
7D
100
AcDbEntity
100
AcDbLine
  8
1
 62
256
370
-1
  6
ByLayer
 10
2.337746120138819
 20
0.0520748615457236
 30
0.0
 11
2.3374327056625468
 21
0.0002022033845069
 31
0.0
  0
LINE
  5
7E
100
AcDbEntity
100
AcDbLine
  8
1
 62
256
370
-1
  6
ByLayer
 10
0.5855539519103312
 20
4.9431253168917504
 30
0.0
 11
-0.0000000000000006
 21
4.937382569858455
 31
0.0
  0
LINE
  5
7F
100
AcDbEntity
100
AcDbLine
  8
1
 62
256
370
-1
  6
ByLayer
 10
2.3374327056625468
 20
0.0002022033845069
 30
0.0
 11
-0.0000000000000009
 21
0.0
 31
0.0
  0
LINE
  5
80
100
AcDbEntity
100
AcDbLine
  8
1
 62
256
370
-1
  6
ByLayer
 10
-0.0000000000000006
 20
4.937382569858455
 30
0.0
 11
-0.0000000000000009
 21
0.0
 31
0.0
  0
ENDSEC
  0
SECTION
  2
OBJECTS
  0
DICTIONARY
  5
C
100
AcDbDictionary
280
0
281
1
  3
ACAD_GROUP
350
D
  3
ACAD_LAYOUT
350
1A
  3
ACAD_MLINESTYLE
350
17
  3
ACAD_PLOTSETTINGS
350
19
  3
ACAD_PLOTSTYLENAME
350
E
  3
AcDbVariableDictionary
350
81
  0
DICTIONARY
  5
D
100
AcDbDictionary
280
0
281
1
  0
ACDBDICTIONARYWDFLT
  5
E
100
AcDbDictionary
281
1
  3
Normal
350
F
100
AcDbDictionaryWithDefault
340
F
  0
ACDBPLACEHOLDER
  5
F
  0
DICTIONARY
  5
17
100
AcDbDictionary
280
0
281
1
  3
Standard
350
18
  0
MLINESTYLE
  5
18
100
AcDbMlineStyle
  2
STANDARD
 70
0
  3

 62
256
 51
90.0
 52
90.0
 71
2
 49
0.5
 62
256
  6
BYLAYER
 49
-0.5
 62
256
  6
BYLAYER
  0
DICTIONARY
  5
19
100
AcDbDictionary
280
0
281
1
  0
DICTIONARY
  5
1A
100
AcDbDictionary
281
1
  3
Layout1
350
1E
  3
Layout2
350
26
  3
Model
350
22
  0
LAYOUT
  5
1E
100
AcDbPlotSettings
  1

  2
C:\Program Files\AutoCAD 2002\plotters\DWF ePlot (optimized for plotting).pc3
  4

  6

 40
0.0
 41
0.0
 42
0.0
 43
0.0
 44
0.0
 45
0.0
 46
0.0
 47
0.0
 48
0.0
 49
0.0
140
0.0
141
0.0
142
1.0
143
1.0
 70
688
 72
0
 73
0
 74
5
  7

 75
16
147
1.0
148
0.0
149
0.0
100
AcDbLayout
  1
Layout1
 70
1
 71
1
 10
0.0
 20
0.0
 11
420.0
 21
297.0
 12
0.0
 22
0.0
 32
0.0
 14
100000000000000000000.0
 24
100000000000000000000.0
 34
100000000000000000000.0
 15
-100000000000000000000.0
 25
-100000000000000000000.0
 35
-100000000000000000000.0
146
0.0
 13
0.0
 23
0.0
 33
0.0
 16
1.0
 26
0.0
 36
0.0
 17
0.0
 27
1.0
 37
0.0
 76
0
330
1B
  0
LAYOUT
  5
22
100
AcDbPlotSettings
  1

  2
C:\Program Files\AutoCAD 2002\plotters\DWF ePlot (optimized for plotting).pc3
  4

  6

 40
0.0
 41
0.0
 42
0.0
 43
0.0
 44
0.0
 45
0.0
 46
0.0
 47
0.0
 48
0.0
 49
0.0
140
0.0
141
0.0
142
1.0
143
1.0
 70
1712
 72
0
 73
0
 74
0
  7

 75
0
147
1.0
148
0.0
149
0.0
100
AcDbLayout
  1
Model
 70
1
 71
0
 10
0.0
 20
0.0
 11
12.0
 21
9.0
 12
0.0
 22
0.0
 32
0.0
 14
0.0
 24
0.0
 34
0.0
 15
0.0
 25
0.0
 35
0.0
146
0.0
 13
0.0
 23
0.0
 33
0.0
 16
1.0
 26
0.0
 36
0.0
 17
0.0
 27
1.0
 37
0.0
 76
0
330
1F
  0
LAYOUT
  5
26
100
AcDbPlotSettings
  1

  2
C:\Program Files\AutoCAD 2002\plotters\DWF ePlot (optimized for plotting).pc3
  4

  6

 40
0.0
 41
0.0
 42
0.0
 43
0.0
 44
0.0
 45
0.0
 46
0.0
 47
0.0
 48
0.0
 49
0.0
140
0.0
141
0.0
142
1.0
143
1.0
 70
688
 72
0
 73
0
 74
5
  7

 75
16
147
1.0
148
0.0
149
0.0
100
AcDbLayout
  1
Layout2
 70
1
 71
2
 10
0.0
 20
0.0
 11
12.0
 21
9.0
 12
0.0
 22
0.0
 32
0.0
 14
0.0
 24
0.0
 34
0.0
 15
0.0
 25
0.0
 35
0.0
146
0.0
 13
0.0
 23
0.0
 33
0.0
 16
1.0
 26
0.0
 36
0.0
 17
0.0
 27
1.0
 37
0.0
 76
0
330
23
  0
DICTIONARY
  5
81
100
AcDbDictionary
281
1
  3
DIMASSOC
350
83
  3
HIDETEXT
350
82
  0
DICTIONARYVAR
  5
82
100
DictionaryVariables
280
0
  1
2
  0
DICTIONARYVAR
  5
83
100
DictionaryVariables
280
0
  1
1
  0
IMAGEDEF
  5
46
100
AcDbRasterImageDef
 90
0
  1
/Users/Kyle/github/Carbon Fiber Trumpet/IMG_0261.png
 10
1936.0
 20
2592.0
 11
1.0
 21
1.0
280
1
281
0
  0
ENDSEC
  0
EOF
